<svg width="94" height="33" viewBox="0 0 94 33" fill="none" xmlns="http://www.w3.org/2000/svg">
<g clip-path="url(#clip0_1_2)">
<path d="M41.5081 21.2305C40.7245 21.2305 40.0349 21.0246 39.4392 20.6129C38.8435 20.1971 38.3778 19.6294 38.042 18.9098C37.7102 18.1902 37.5443 17.3746 37.5443 16.4631C37.5443 15.5516 37.7122 14.7361 38.048 14.0165C38.3838 13.2969 38.8495 12.7292 39.4452 12.3134C40.0409 11.8976 40.7265 11.6898 41.5021 11.6898C42.0858 11.6898 42.6175 11.8097 43.0972 12.0496C43.5809 12.2894 43.9807 12.6232 44.2966 13.051C44.6164 13.4788 44.8203 13.9745 44.9082 14.5382H44.1646C44.0447 13.9145 43.7449 13.3988 43.2651 12.991C42.7894 12.5793 42.2037 12.3734 41.5081 12.3734C40.8844 12.3734 40.3287 12.5493 39.841 12.9011C39.3533 13.2489 38.9695 13.7306 38.6896 14.3463C38.4098 14.958 38.2699 15.6596 38.2699 16.4511C38.2699 17.2307 38.4058 17.9303 38.6776 18.55C38.9495 19.1657 39.3293 19.6534 39.817 20.0132C40.3047 20.373 40.8684 20.5529 41.5081 20.5529C41.9598 20.5529 42.3716 20.463 42.7434 20.283C43.1192 20.1031 43.433 19.8473 43.6849 19.5155C43.9368 19.1837 44.1027 18.7959 44.1826 18.3521H44.9262C44.8383 18.9198 44.6384 19.4195 44.3265 19.8513C44.0147 20.283 43.6169 20.6209 43.1332 20.8647C42.6495 21.1086 42.1078 21.2305 41.5081 21.2305ZM50.845 21.2305C50.0854 21.2305 49.4098 21.0266 48.8181 20.6189C48.2264 20.2071 47.7607 19.6414 47.4208 18.9218C47.081 18.2022 46.9111 17.3826 46.9111 16.4631C46.9111 15.5396 47.081 14.7201 47.4208 14.0045C47.7607 13.2849 48.2264 12.7192 48.8181 12.3074C49.4098 11.8956 50.0854 11.6898 50.845 11.6898C51.6046 11.6898 52.2802 11.8956 52.8719 12.3074C53.4635 12.7192 53.9293 13.2849 54.2691 14.0045C54.6089 14.7241 54.7788 15.5436 54.7788 16.4631C54.7788 17.3826 54.6089 18.2022 54.2691 18.9218C53.9293 19.6414 53.4635 20.2071 52.8719 20.6189C52.2802 21.0266 51.6046 21.2305 50.845 21.2305ZM50.845 20.5529C51.4886 20.5529 52.0503 20.371 52.53 20.0072C53.0138 19.6434 53.3876 19.1517 53.6514 18.532C53.9193 17.9123 54.0532 17.2227 54.0532 16.4631C54.0532 15.7036 53.9193 15.0159 53.6514 14.4003C53.3836 13.7806 53.0098 13.2889 52.53 12.9251C52.0503 12.5573 51.4886 12.3734 50.845 12.3734C50.2013 12.3734 49.6396 12.5573 49.1599 12.9251C48.6802 13.2889 48.3064 13.7806 48.0385 14.4003C47.7707 15.0159 47.6367 15.7036 47.6367 16.4631C47.6367 17.2227 47.7687 17.9123 48.0325 18.532C48.3004 19.1517 48.6742 19.6434 49.1539 20.0072C49.6376 20.371 50.2013 20.5529 50.845 20.5529ZM57.2989 21.0386V11.8277H58.0125V13.2189H58.0845C58.2604 12.7552 58.5642 12.3874 58.996 12.1155C59.4278 11.8437 59.9475 11.7077 60.5552 11.7077C61.2228 11.7077 61.7605 11.8677 62.1683 12.1875C62.58 12.5073 62.8759 12.9411 63.0558 13.4888H63.1217C63.3016 12.9491 63.6235 12.5173 64.0872 12.1935C64.555 11.8697 65.1306 11.7077 65.8143 11.7077C66.7058 11.7077 67.3854 11.9896 67.8532 12.5533C68.3249 13.113 68.5608 13.8806 68.5608 14.856V21.0386H67.8292V14.856C67.8292 14.0884 67.6453 13.4848 67.2775 13.045C66.9097 12.6053 66.37 12.3854 65.6584 12.3854C64.8988 12.3854 64.3151 12.6232 63.9073 13.099C63.4995 13.5747 63.2956 14.1804 63.2956 14.916V21.0386H62.5641V14.808C62.5641 14.0924 62.3841 13.5108 62.0243 13.063C61.6645 12.6113 61.1248 12.3854 60.4052 12.3854C59.9175 12.3854 59.4957 12.4973 59.1399 12.7212C58.7881 12.9451 58.5143 13.2529 58.3184 13.6447C58.1265 14.0365 58.0305 14.4862 58.0305 14.9939V21.0386H57.2989ZM71.5966 24.4927V11.8277H72.3102V13.8846H72.4002C72.5441 13.4888 72.746 13.125 73.0058 12.7932C73.2697 12.4613 73.5955 12.1955 73.9833 11.9956C74.3751 11.7917 74.8348 11.6898 75.3625 11.6898C76.1061 11.6898 76.7538 11.8936 77.3055 12.3014C77.8572 12.7092 78.2849 13.2729 78.5888 13.9925C78.8926 14.7081 79.0445 15.5297 79.0445 16.4571C79.0445 17.3846 78.8906 18.2082 78.5828 18.9278C78.2789 19.6434 77.8512 20.2071 77.2995 20.6189C76.7518 21.0266 76.1101 21.2305 75.3745 21.2305C74.8508 21.2305 74.3911 21.1306 73.9953 20.9307C73.6035 20.7308 73.2737 20.4649 73.0058 20.1331C72.742 19.7973 72.5401 19.4295 72.4002 19.0297H72.3282V24.4927H71.5966ZM72.3162 16.4511C72.3162 17.2347 72.4361 17.9363 72.676 18.556C72.9159 19.1717 73.2597 19.6594 73.7074 20.0192C74.1552 20.375 74.6889 20.5529 75.3086 20.5529C75.9362 20.5529 76.4739 20.373 76.9217 20.0132C77.3734 19.6494 77.7173 19.1577 77.9531 18.538C78.193 17.9183 78.3129 17.2227 78.3129 16.4511C78.3129 15.6796 78.195 14.986 77.9591 14.3703C77.7232 13.7546 77.3814 13.2689 76.9337 12.9131C76.4859 12.5533 75.9442 12.3734 75.3086 12.3734C74.6809 12.3734 74.1432 12.5513 73.6955 12.9071C73.2517 13.2589 72.9099 13.7426 72.67 14.3583C72.4341 14.97 72.3162 15.6676 72.3162 16.4511ZM81.8315 24.4927C81.6476 24.4927 81.4657 24.4728 81.2858 24.4328C81.1059 24.3928 80.944 24.3408 80.8001 24.2769L81.0159 23.6352C81.3917 23.7791 81.7316 23.8311 82.0354 23.7911C82.3432 23.7511 82.6151 23.6112 82.8509 23.3714C83.0868 23.1315 83.2867 22.7797 83.4506 22.3159L83.8704 21.1646L80.4942 11.8277H81.2798L84.2062 20.0972H84.2662L87.1926 11.8277H87.9781L84.0923 22.6038C83.9443 23.0196 83.7584 23.3674 83.5346 23.6472C83.3107 23.9271 83.0548 24.1369 82.767 24.2769C82.4831 24.4208 82.1713 24.4927 81.8315 24.4927Z" fill="white"/>
<g filter="url(#filter0_d_1_2)">
<rect x="1.68866" y="4.59955" width="89.0393" height="24.2555" rx="12.1278" stroke="#010101" stroke-width="3.07032" shape-rendering="crispEdges"/>
</g>
<path d="M36.153 16.7273C36.153 25.462 28.1887 32.6162 18.2684 32.6162C8.34805 32.6162 0.38379 25.462 0.38379 16.7273C0.38379 7.99265 8.34805 0.83841 18.2684 0.83841C28.1887 0.83841 36.153 7.99265 36.153 16.7273Z" fill="white" stroke="black" stroke-width="0.76758"/>
<line x1="10.1223" y1="4.61257" x2="32.5357" y2="19.5036" stroke="black" stroke-width="1.07461"/>
<line x1="10.3443" y1="4.92207" x2="16.792" y2="29.1776" stroke="black" stroke-width="1.07461"/>
<line x1="32.3526" y1="19.248" x2="22.3268" y2="21.429" stroke="black" stroke-width="1.07461"/>
<g filter="url(#filter1_d_1_2)">
<line x1="16.6175" y1="28.984" x2="22.7581" y2="21.1547" stroke="black" stroke-width="1.07461"/>
</g>
</g>
<defs>
<filter id="filter0_d_1_2" x="-0.46056" y="3.06439" width="93.3377" height="28.554" filterUnits="userSpaceOnUse" color-interpolation-filters="sRGB">
<feFlood flood-opacity="0" result="BackgroundImageFix"/>
<feColorMatrix in="SourceAlpha" type="matrix" values="0 0 0 0 0 0 0 0 0 0 0 0 0 0 0 0 0 0 127 0" result="hardAlpha"/>
<feOffset dy="0.614064"/>
<feGaussianBlur stdDeviation="0.307032"/>
<feComposite in2="hardAlpha" operator="out"/>
<feColorMatrix type="matrix" values="0 0 0 0 0 0 0 0 0 0 0 0 0 0 0 0 0 0 0.25 0"/>
<feBlend mode="normal" in2="BackgroundImageFix" result="effect1_dropShadow_1_2"/>
<feBlend mode="normal" in="SourceGraphic" in2="effect1_dropShadow_1_2" result="shape"/>
</filter>
<filter id="filter1_d_1_2" x="15.5806" y="20.8231" width="8.21433" height="9.72062" filterUnits="userSpaceOnUse" color-interpolation-filters="sRGB">
<feFlood flood-opacity="0" result="BackgroundImageFix"/>
<feColorMatrix in="SourceAlpha" type="matrix" values="0 0 0 0 0 0 0 0 0 0 0 0 0 0 0 0 0 0 127 0" result="hardAlpha"/>
<feOffset dy="0.614064"/>
<feGaussianBlur stdDeviation="0.307032"/>
<feComposite in2="hardAlpha" operator="out"/>
<feColorMatrix type="matrix" values="0 0 0 0 0 0 0 0 0 0 0 0 0 0 0 0 0 0 0.25 0"/>
<feBlend mode="normal" in2="BackgroundImageFix" result="effect1_dropShadow_1_2"/>
<feBlend mode="normal" in="SourceGraphic" in2="effect1_dropShadow_1_2" result="shape"/>
</filter>
<clipPath id="clip0_1_2">
<rect width="93.5793" height="32.5454" fill="white" transform="translate(0 0.45462)"/>
</clipPath>
</defs>
</svg>
